<svg height="512" width="512" xmlns="http://www.w3.org/2000/svg"><path d="m0 0c5.21589651 5.19135112 7.11896972 8.73000332 7.14717102 16.20910645.01073296 1.95125289.01073296 1.95125289.02168274 3.94192504.00284031 1.44509864.00555204 2.89019754.00814819 4.33529663.00626559 1.51952266.01291248 3.03904379.01991272 4.55856324.02104062 4.99544203.03140595 9.99088435.04136658 14.98635864.00404828 1.72181718.00816523 3.4436342.01235008 5.16545105.01905577 8.09394489.03328306 16.18788066.04161197 24.28184366.00975859 9.32855087.03604033 18.65686358.07650089 27.98533058.0302266 7.21800907.04497438 14.43595017.04828012 21.65402127.00234406 4.30684237.0112193 8.61343044.03646118 12.92020464.023399 4.05811288.02746689 8.11580623.01723862 12.17396927-.0004927 1.48217418.00574854 2.96436984.01955604 4.44647979.10501943 11.95050521-1.58862113 21.92195891-9.4316864 31.33363724-6.82660959 6.65821125-15.14504972 10.26535113-24.62890625 10.18359375-1.14082031-.02513672-1.14082031-.02513672-2.3046875-.05078125-.78375-.00902344-1.5675-.01804688-2.375-.02734375-1.91680055-.02337562-3.83344191-.05923972-5.75-.09765625.16604736.59200195.33209473 1.18400391.50317383 1.79394531 3.79275672 13.65550289 6.85502035 27.12315455 8.49682617 41.20605469.13148438 1.08539063.26296875 2.17078125.3984375 3.2890625 5.83899434 59.81023935-12.91935715 120.77274835-50.62109375 167.375-4.38030444 5.31401302-9.01327011 10.36584123-13.77734375 15.3359375-.50257324.52980469-1.00514648 1.05960937-1.52294922 1.60546875-7.91223913 8.30427591-16.2717385 15.56280325-25.47705078 22.39453125-.56831543.42909668-1.13663086.85819336-1.72216797 1.30029297-8.97954916 6.76604546-18.35085985 12.43602467-28.27783203 17.69970703-.63631348.34272949-1.27262695.68545898-1.92822266 1.03857422-53.33853046 28.57763276-117.22673917 33.44949624-174.93115234 16.24658203-25.73587017-8.00419944-49.79771434-19.75720624-71.140625-36.28515625-.83660156-.64453125-1.67320312-1.2890625-2.53515625-1.953125-47.18388909-37.04701029-78.40616289-89.5808279-87.46484375-149.046875-.11714355-.75071777-.23428711-1.50143555-.35498047-2.27490234-8.53346442-57.27438155 6.64963891-119.14943828 40.72363281-165.93261719 14.2284936-19.12395464 30.46583841-36.59120544 49.63134766-50.79248047 1.11980911-.85023745 2.2396009-1.7004977 3.359375-2.55078125 9.03394428-6.7561605 18.63400887-12.2659645 28.640625-17.44921875.81355957-.42313477 1.62711914-.84626953 2.46533203-1.28222656 24.86274794-12.77272231 51.73692158-20.68400924 79.53466797-23.71777344.95390625-.11085937 1.9078125-.22171875 2.890625-.3359375 45.63977229-4.42060622 90.54660911 5.55924237 131.109375 26.3359375.01981934-.93271729.03963867-1.86543457.06005859-2.82641602.07847184-3.48722763.16517655-6.9740546.25732422-10.4609375.03809208-1.50415271.07297811-3.0083904.10449219-4.51269531.04608395-2.1724264.10400154-4.34427772.1640625-6.51635742.0314209-1.30396729.0628418-2.60793457.09521484-3.95141602.54125701-6.3355251 1.83843029-11.12374844 6.31884766-15.73217773 3.44064087-2.35275119 6.16093576-3.45440067 10.27856445-4.01123047 1.15126374-.15660095 2.30252747-.3132019 3.48867798-.47454834 1.4106137-.17390323 2.82156703-.34506268 4.23275757-.51422119.83319637-.10068031 1.66639275-.20136063 2.52483749-.30509186 7.33506903-.87704453 14.67618156-1.69814695 22.01813126-2.51522064 2.37885909-.26610593 4.75770924-.53229179 7.1365509-.79855347 4.96460363-.55493376 9.92945064-1.10762947 14.89445496-1.65896606 6.34528398-.70497494 12.68969317-1.41751794 19.03391552-2.13197518 4.90420595-.55110033 9.80896067-1.0971881 14.71388149-1.64188575 2.33923934-.26056854 4.67828245-.52290529 7.01711655-.78708649 3.27213959-.36904166 6.54498652-.73105624 9.81809425-1.09139633 1.43025513-.16360016 1.43025513-.16360016 2.8894043-.33050537 17.97580212-1.95095853 17.97580212-1.95095853 23.95361328 2.26068115zm-43.43823242 62.71850586c-1.04309075.11463341-1.04309075.11463341-2.10725403.23158264-2.27049201.25064667-4.54022437.5075529-6.8099823.76475525-1.59081001.17728732-3.18165641.35424827-4.77253723.53089905-3.32116786.36971105-6.64198886.74235259-9.96257019 1.11729431-4.24962163.4797483-8.49986639.95367971-12.75036144 1.42562008-3.27989363.36455361-6.55952781.73139689-9.83907986 1.09900951-1.56718992.17554285-3.13443879.35056035-4.7017479.52503586-2.18965007.24426106-4.37895453.49141398-6.5681858.73939705-1.24383957.13989853-2.48767914.27979706-3.76921082.42393494-2.79926243.36173397-5.52402208.82557239-8.28083801 1.42396545-.95474308 4.2736119-1.09915531 7.7395573 0 12 3.23341181 4.25237782 7.8765118 7.29282931 12.09716797 10.49560547 2.94024135 2.3245788 5.58472765 4.90187505 8.21533203 7.56689453.49330811.49975342.98661621.99950684 1.49487305 1.5144043 11.4455629 11.78281705 21.45253685 25.43424021 29.8527832 39.54418945.44214844.62003906.88429688 1.24007812 1.33984375 1.87890625h2c.9081803-1.33993815 1.75119369-2.72428312 2.5625-4.125 5.0735189-7.83193694 12.5100698-11.70935812 21.4375-13.875 1.98-.33 3.96-.66 6-1 0-20.79 0-41.58 0-63-5.35988346 0-10.17397021.1309125-15.43823242.71850586zm-237.56176758 174.28149414c-7.8257616 8.37493786-10.97004869 16.55859825-11 28 .66628458 8.98035743 5.30379578 16.79501282 11.8125 22.875 7.60852976 6.09833009 15.43383926 8.42472837 25.1875 8.125 9.8468193-1.38200973 17.56464778-5.71808727 23.875-13.375 5.23851264-7.25145962 7.76966967-15.14808436 6.875-24.13671875-1.65693686-9.66053364-5.89350569-17.64288573-13.4921875-23.9296875-13.30982468-9.25060429-31.1422035-8.27893108-43.2578125 2.44140625z" fill="#283f56" transform="translate(497 11)"/><path d="m0 0c4.49726567 1.37022748 8.46075587 3.16705997 12.6015625 5.38671875.6254068.33358017 1.2508136.66716034 1.89517212 1.010849 2.04515122 1.09223057 4.08669618 2.19102305 6.12826538 3.28993225 1.43825508.76978245 2.8767349 1.53914513 4.31542969 2.30810547 3.66063604 1.95786525 7.31840699 3.92101843 10.97546386 5.88555908 3.1434186 1.68751849 6.2894909 3.37006272 9.43566895 5.0524292 8.02570194 4.29348568 16.04606392 8.59690409 24.06640625 12.90039063 3.44373365 1.84752187 6.88778787 3.6944442 10.33203125 5.54101562 1.13775879.61012939 2.27551758 1.22025879 3.44775391 1.84887695 7.0396017 3.7713907 14.08929308 7.52315828 21.14695739 11.26063538 5.41977193 2.87039761 10.83512748 5.74898839 16.24661255 8.63497925 2.84746556 1.51832474 5.69686999 3.03237319 8.55174256 4.53675842 2.60486563 1.37328767 5.20085876 2.76179434 7.79443359 4.15625.72719238.37809814 1.45438477.75619629 2.20361328 1.14575195 4.59889048 2.50455737 4.59889048 2.50455737 5.86279297 5.1159668-.00390625 1.92578125-.00390625 1.92578125-1.00390625 4.92578125-1.65407433 19.83064016 1.47035971 38.12915274 13.8125 54.25 10.45520477 12.35255762 22.52901749 19.70489202 38.1875 23.75.61198242.17724609 1.22396484.35449219 1.85449219.53710938 2.47994342.53504468 4.74910618.59249402 7.28613281.59570312.98871094.00128906 1.97742188.00257813 2.99609375.00390625 1.54107422-.00580078 1.54107422-.00580078 3.11328125-.01171875 1.01191406.00386719 2.02382812.00773438 3.06640625.01171875 5.65622339-.00733622 11.08971149-.29362166 16.68359375-1.13671875 6.88932278 12.85123673 13.4677456 25.84603271 19.9375 38.91210938 3.53366478 7.12143907 7.15127387 14.18880397 10.875 21.21289062 6.06939653 11.45830976 11.81848737 23.07276951 17.58300781 34.68652344 5.70161476 11.4791445 11.49645734 22.89480193 17.51074219 34.21362304 2.14315173 4.04315894 4.18264129 8.13139448 6.15625 12.26000977.93330333 1.89814574.93330333 1.89814574 2.9375 3.71484375-58.35531722 24.69602039-121.52080094 26.89341458-181 4-19.03261929-7.71778697-36.74491149-17.41205946-53-30-.83660156-.64453125-1.67320313-1.2890625-2.53515625-1.953125-47.18388909-37.04701029-78.40616289-89.5808279-87.46484375-149.046875-.11714355-.75071777-.23428711-1.50143555-.35498047-2.27490234-6.29485223-42.24940201.25441821-88.01017282 18.35498047-126.72509766z" fill="#283f56" transform="translate(28 178)"/><path d="m0 0c1.52709961 2.42651367 1.52709961 2.42651367 3.15234375 5.66796875.29574921.58189087.59149841 1.16378174.89620972 1.76330566.63756778 1.2565723 1.27076975 2.5153672 1.90008545 3.77609253 1.67680442 3.35769697 3.38607278 6.69885983 5.09042358 10.04263306.34096207.67117355.68192413 1.34234711 1.03321838 2.03385925 2.81199433 5.52482139 5.74140303 10.97789055 8.74021912 16.40364075 5.170015 9.38162922 10.18903314 18.83881323 15.1875 28.3125 5.52171363 10.46432941 11.09265773 20.8955856 16.79150391 31.26489258 4.11767225 7.51449982 8.09005233 15.10152758 12.02636718 22.71240234 2.92842804 5.65618742 5.94564114 11.24902189 9.06738282 16.80126953 1.11474609 2.22143555 1.11474609 2.22143555 1.11474609 4.22143555.6084375-.144375 1.216875-.28875 1.84375-.4375 19.07088803-4.03854099 37.37877685-1.07345399 54.32421875 8.55078125 8.95977417 5.96906334 16.33116822 13.6298901 21.83203125 22.88671875.45890625.76570312.9178125 1.53140625 1.390625 2.3203125 9.07598818 16.56641215 8.87532427 34.44155923 6.609375 52.6796875.80928955.40202637 1.6185791.80405273 2.45239258 1.21826172 27.05326176 13.450838 27.05326176 13.450838 36.54760742 18.53173828 9.5672816 5.11341238 19.29038996 9.91463132 29 14.75 10.31164402 5.13521589 20.60513515 10.27997968 30.76730347 15.70646667 5.38775501 2.85932484 10.83019071 5.57193526 16.32644653 8.21540833 1.66237803.81023199 3.3243151 1.62136925 4.98583984 2.43334961 2.51178629 1.22710929 5.02564736 2.44787461 7.55010987 3.64871216 2.36335343 1.12458662 4.71499828 2.27092093 7.06561279 3.42184448.72191528.33614319 1.44383057.67228638 2.18762207 1.01861572 2.97527834 1.47892413 4.82486625 2.40231749 6.20959473 5.49822998-.11103534 3.06885255-.83573902 4.83507779-2.26831055 7.54956055-.49314697.94496338-.98629395 1.88992676-1.49438477 2.86352539-.54197021.99636475-1.08394043 1.99272949-1.64233398 3.01928711-.55034912 1.02923584-1.10069824 2.05847168-1.66772461 3.11889648-10.01097831 18.4601342-22.50595107 34.86462806-37.01977539 50.00610352-.50257324.52980469-1.00514648 1.05960937-1.52294922 1.60546875-7.91223913 8.30427591-16.2717385 15.56280325-25.47705078 22.39453125-.56831543.42909668-1.13663086.85819336-1.72216797 1.30029297-8.39577988 6.32617822-17.11353464 11.74110669-26.38671875 16.68896484-1.80669038.96562073-3.60080031 1.95189327-5.39501953 2.94042969-1.05058594.55945313-2.10117187 1.11890625-3.18359375 1.6953125-.91136719.48726563-1.82273437.97453125-2.76171875 1.4765625-3.12292319 1.09995763-4.43962542 1.00465281-7.55078125-.1015625-1.6940918-2.38232422-1.6940918-2.38232422-3.19921875-5.5546875-.57041016-1.17433594-1.14082031-2.34867187-1.72851563-3.55859375-.58739778-1.25352736-1.17398747-2.50743371-1.75976562-3.76171875-1.14719947-2.394499-2.29685422-4.78768405-3.44921875-7.1796875-.44942459-.93969635-.44942459-.93969635-.90792847-1.89837646-2.45584807-5.10408061-5.06790732-10.11539688-7.72488403-15.11724854-6.0903955-11.47352584-11.85111536-23.10662354-17.62597656-34.74121094-5.21896979-10.50742831-10.50094701-20.96901066-15.99642945-31.33479309-4.20742227-7.9495498-8.23092147-15.98685056-12.23306274-24.04118347-.72506642-1.4551748-1.45032657-2.91025309-2.17578125-4.36523438-1.73528558-3.48132465-3.46802375-6.96390512-5.19921875-10.44726562-1.20881836.16081055-2.41763672.32162109-3.66308594.48730469-21.39253793 2.66598227-41.22251141.04731145-58.64941406-13.29980469-13.9618593-11.92480114-22.49945378-26.03110595-25.6875-44.1875-.08800839-1.69490869-.13057956-3.39265314-.1328125-5.08984375-.00128906-.94939453-.00257813-1.89878906-.00390625-2.87695313.00386719-.98033203.00773438-1.96066406.01171875-2.97070312-.00386719-.97646484-.00773438-1.95292969-.01171875-2.95898438.00193359-1.42602539.00193359-1.42602539.00390625-2.88085937.00112793-.85843506.00225586-1.71687012.00341797-2.60131836.14471002-2.93160664.59888301-5.73671444 1.12939453-8.62133789-.70157227-.37584229-1.40314453-.75168457-2.12597656-1.13891602-32.98339844-17.66967773-32.98339844-17.66967773-36.43457032-19.51855468-2.31376345-1.23949268-4.62756623-2.47891197-6.94140624-3.71826172-5.78671724-3.09962501-11.57278622-6.2004469-17.35742188-9.30395508-11.04897595-5.92621186-22.10463815-11.83890475-33.18041992-17.71484375-2.70413422-1.43461131-5.40742954-2.87078176-8.10986328-4.30859375-1.32901895-.70703357-2.65803913-1.41406484-3.98706055-2.12109375-.65267349-.34727142-1.30534698-.69454285-1.97779846-1.05233765-3.9110943-2.07928526-7.82824292-4.14658498-11.75053406-6.20466613-1.85976172-.97730917-3.71726556-1.95876106-5.57391357-2.94197083-2.28148624-1.20761152-4.56681275-2.4080038-6.85644532-3.60009766-1.00466308-.53423584-2.00932617-1.06847168-3.04443359-1.61889648-.88034912-.4626123-1.76069824-.92522461-2.66772461-1.40185547-1.99243164-1.35595703-1.99243164-1.35595703-2.99243164-4.35595703 1.03070061-2.51949038 2.11828827-4.8459549 3.375-7.25.36577148-.71091797.73154297-1.42183594 1.10839844-2.15429688 7.00994737-13.44814033 15.10813099-25.70232781 24.51660156-37.59570312.44037598-.55896973.88075195-1.11793945 1.33447266-1.69384766 11.31655339-14.22022803 24.30991158-27.32604747 38.98144531-38.07080078 1.69116745-1.24054904 3.36154088-2.50582344 5.03173828-3.77441406 9.03892298-6.76257896 18.69326538-12.17890862 28.65234375-17.4609375 1.07636719-.58523437 2.15273437-1.17046875 3.26171875-1.7734375 6.35025895-3.35590327 6.35025895-3.35590327 9.73828125-2.2265625zm71 184c-7.8257616 8.37493786-10.97004869 16.55859825-11 28 .66628458 8.98035743 5.30379578 16.79501282 11.8125 22.875 7.60852976 6.09833009 15.43383926 8.42472837 25.1875 8.125 9.8468193-1.38200973 17.56464778-5.71808727 23.875-13.375 5.23851264-7.25145962 7.76966967-15.14808436 6.875-24.13671875-1.65693686-9.66053364-5.89350569-17.64288573-13.4921875-23.9296875-13.30982468-9.25060429-31.1422035-8.27893108-43.2578125 2.44140625z" fill="#416783" transform="translate(145 64)"/><path d="m0 0c5.21589651 5.19135112 7.11896972 8.73000332 7.14717102 16.20910645.01073296 1.95125289.01073296 1.95125289.02168274 3.94192504.00284031 1.44509864.00555204 2.89019754.00814819 4.33529663.00626559 1.51952266.01291248 3.03904379.01991272 4.55856324.02104062 4.99544203.03140595 9.99088435.04136658 14.98635864.00404828 1.72181718.00816523 3.4436342.01235008 5.16545105.01905577 8.09394489.03328306 16.18788066.04161197 24.28184366.00975859 9.32855087.03604033 18.65686358.07650089 27.98533058.0302266 7.21800907.04497438 14.43595017.04828012 21.65402127.00234406 4.30684237.0112193 8.61343044.03646118 12.92020464.023399 4.05811288.02746689 8.11580623.01723862 12.17396927-.0004927 1.48217418.00574854 2.96436984.01955604 4.44647979.10501943 11.95050521-1.58862113 21.92195891-9.4316864 31.33363724-6.90503967 6.73470663-15.47878066 10.25029719-25.05859375 10.5703125-10.49851414-.16516836-19.13713828-4.12996588-26.5625-11.75-6.23145456-7.91997773-9.35848516-16.40123219-8.921875-26.50390625 1.27431684-8.70440615 4.57376418-17.56978216 11.484375-23.30859375 7.43371464-5.29221406 13.75114851-8 23-8 0-20.79 0-41.58 0-63-5.71699219.6496875-11.43398438 1.299375-17.32421875 1.96875-3.6230127.4104632-7.24604251.82076193-10.86914063 1.23046875-5.75010235.65024836-11.50013154 1.30110285-17.24975585 1.95556641-4.63570556.52763078-9.27171157 1.0525434-13.90793801 1.57557678-1.76831904.19997481-3.53652783.40092704-5.30462265.60287475-2.47736384.28278934-4.95509768.56209397-7.43294716.84059143-.7300827.08415665-1.4601654.1683133-2.21237182.25502015-3.58473737.39920667-7.09154939.66403133-10.69900513.57115173.00368717.56100277.00737434 1.12200554.01117325 1.70000839.08863151 13.69862626.15441598 27.39720176.19607544 41.09605408.02082716 6.62489168.04905614 13.24957557.09450912 19.87434769.04363091 6.39964068.06741589 12.79908216.07775116 19.19886016.00736042 2.43510573.02173324 4.87020121.04341126 7.30522156.02926249 3.42481853.03302615 6.84882583.03118133 10.27375031.01438111.99478866.02876221 1.98957733.0435791 3.01451111-.06378964 11.02632055-3.13733528 20.38272099-10.84924316 28.33802795-9.19539243 7.63570198-18.9451557 10.13548129-30.6484375 9.19921875-9.43859056-2.216133-17.339862-7.85443881-22.4375-16.0625-4.98352943-8.76022124-5.84872253-17.6633171-4.09765625-27.56640625 2.85573318-9.71625194 10.04411452-17.18628955 18.66015625-22.18359375 5.09126676-2.10291453 9.39248041-2.21956152 14.875-2.1875-.01252808-.96432953-.02505615-1.92865906-.03796387-2.92221069-.12001694-9.26055304-.23765619-18.5211339-.35318756-27.78174401-.05941146-4.75657457-.11955293-9.51313716-.18160248-14.26967811-.15360427-11.80866173-.29081923-23.61735898-.40222168-35.42649842-.02476011-2.57241007-.05167564-5.14479156-.07873535-7.71717834-.04051168-3.98620502-.0694858-7.97233842-.08934021-11.95869827-.00867446-1.45444965-.02074886-2.90888372-.03652954-4.36327362-.0208226-1.99102748-.02738493-3.98218866-.03330993-5.9733162-.00729126-1.1100943-.01458252-2.22018859-.02209473-3.36392212.44703566-6.13234237 1.92321641-10.78851788 6.23498535-15.22348022 3.44064087-2.35275119 6.16093576-3.45440067 10.27856445-4.01123047 1.15126374-.15660095 2.30252747-.3132019 3.48867798-.47454834 1.4106137-.17390323 2.82156703-.34506268 4.23275757-.51422119.83319637-.10068031 1.66639275-.20136063 2.52483749-.30509186 7.33506903-.87704453 14.67618156-1.69814695 22.01813126-2.51522064 2.37885909-.26610593 4.75770924-.53229179 7.1365509-.79855347 4.96460363-.55493376 9.92945064-1.10762947 14.89445496-1.65896606 6.34528398-.70497494 12.68969317-1.41751794 19.03391552-2.13197518 4.90420595-.55110033 9.80896067-1.0971881 14.71388149-1.64188575 2.33923934-.26056854 4.67828245-.52290529 7.01711655-.78708649 3.27213959-.36904166 6.54498652-.73105624 9.81809425-1.09139633.95350342-.10906677 1.90700684-.21813355 2.8894043-.33050537 17.97580212-1.95095853 17.97580212-1.95095853 23.95361328 2.26068115z" fill="#cd326a" transform="translate(497 11)"/><path d="m0 0c1.08667969.70769531 2.17335938 1.41539062 3.29296875 2.14453125 5.15861023 3.22200792 10.56190367 5.8701396 16.01953125 8.54296875 7.1535433 3.53798154 14.27596919 7.10962959 21.3125 10.875 9.69470792 5.17145824 19.5402561 10.03986144 29.375 14.9375 10.31164939 5.13520532 20.60513538 10.27997981 30.76730347 15.70646667 5.38775501 2.85932484 10.83019071 5.57193526 16.32644653 8.21540833 1.66237803.81023199 3.3243151 1.62136925 4.98583984 2.43334961 2.51178629 1.22710929 5.02564736 2.44787461 7.55010987 3.64871216 2.36335343 1.12458662 4.71499828 2.27092093 7.06561279 3.42184448.72191528.33614319 1.44383057.67228638 2.18762207 1.01861572 2.97527834 1.47892413 4.82486625 2.40231749 6.20959473 5.49822998-.11103534 3.06885255-.83573902 4.83507779-2.26831055 7.54956055-.49314697.94496338-.98629395 1.88992676-1.49438477 2.86352539-.54197021.99636475-1.08394043 1.99272949-1.64233398 3.01928711-.55034912 1.02923584-1.10069824 2.05847168-1.66772461 3.11889648-10.01097831 18.4601342-22.50595107 34.86462806-37.01977539 50.00610352-.50257324.52980469-1.00514648 1.05960938-1.52294922 1.60546875-7.91223913 8.30427591-16.2717385 15.56280325-25.47705078 22.39453125-.56831543.42909668-1.13663086.85819336-1.72216797 1.30029297-8.39577988 6.32617822-17.11353464 11.74110669-26.38671875 16.68896484-1.80669038.96562073-3.60080031 1.95189327-5.39501953 2.94042969-1.05058594.55945313-2.10117187 1.11890625-3.18359375 1.6953125-.91136719.48726562-1.82273437.97453125-2.76171875 1.4765625-3.12292319 1.09995763-4.43962542 1.00465281-7.55078125-.1015625-1.6940918-2.38232422-1.6940918-2.38232422-3.19921875-5.5546875-.57041016-1.17433594-1.14082031-2.34867188-1.72851563-3.55859375-.58739778-1.25352736-1.17398747-2.50743371-1.75976562-3.76171875-1.14719947-2.394499-2.29685422-4.78768405-3.44921875-7.1796875-.29961639-.62646423-.59923279-1.25292847-.90792847-1.89837646-2.45584807-5.10408061-5.06790732-10.11539688-7.72488403-15.11724854-6.0903955-11.47352584-11.85111536-23.10662354-17.62597656-34.74121094-5.22085403-10.51122187-10.50600258-20.97541323-16.00549317-31.34385681-4.55415841-8.60558578-8.86179698-17.33080926-13.16149902-26.06556702-1.02781439-2.08562244-2.06046925-4.16879069-3.09375-6.25170898-.30828735-.63003433-.61657471-1.26006866-.9342041-1.90919495-1.27922887-2.57347037-2.36177669-4.57037959-4.4095459-6.6181488.85980469-.25652344 1.71960938-.51304687 2.60546875-.77734375 17.05152041-5.52268436 29.55150981-15.49471097 38.39453125-31.22265625 2.46265786-4.89358045 4.72727991-9.66176373 6-15z" fill="#416783" transform="translate(304 291)"/><path d="m0 0c5.67557875 5.12220982 10.3980839 10.57299368 14.3125 17.16015625.68835938 1.14855469.68835938 1.14855469 1.390625 2.3203125 8.40759571 15.34639458 10.40610708 34.1171231 6.109375 51.0546875-6.57617766 19.3390033-18.19674828 33.61180714-36.3125 43.3125-1.71693196.797713-3.44684507 1.56797208-5.1875 2.3125-.89460938.39445313-1.78921875.78890625-2.7109375 1.1953125-15.12629568 5.67732357-34.06520588 4.57703599-48.76171875-1.671875-16.1183836-7.35482276-28.88694531-19.44883299-36.52734375-35.5234375-6.75911353-18.28453203-7.84459189-37.91552099 0-56 8.22950015-17.65601851 22.41421459-29.21735454 40-37 22.30505654-7.80676979 49.85955062-2.5550108 67.6875 12.83984375zm-67.6875 27.16015625c-7.8257616 8.37493786-10.97004869 16.55859825-11 28 .66628458 8.98035743 5.30379578 16.79501282 11.8125 22.875 7.60852976 6.09833009 15.43383926 8.42472837 25.1875 8.125 9.8468193-1.38200973 17.56464778-5.71808727 23.875-13.375 5.23851264-7.25145962 7.76966967-15.14808436 6.875-24.13671875-1.65693686-9.66053364-5.89350569-17.64288573-13.4921875-23.9296875-13.30982468-9.25060429-31.1422035-8.27893108-43.2578125 2.44140625z" fill="#b9bfcb" transform="translate(283.6875 220.839844)"/></svg>